<?xml version="1.0" standalone="no"?>
<!DOCTYPE svg PUBLIC "-//W3C//DTD SVG 20010904//EN"
 "http://www.w3.org/TR/2001/REC-SVG-20010904/DTD/svg10.dtd">
<svg version="1.0" xmlns="http://www.w3.org/2000/svg"
 width="416.000000pt" height="416.000000pt" viewBox="0 0 416.000000 416.000000"
 preserveAspectRatio="xMidYMid meet">
<metadata>
Created by potrace 1.14, written by Peter Selinger 2001-2017
</metadata>
<g transform="translate(0.000000,416.000000) scale(0.100000,-0.100000)"
fill="#000000" stroke="none">
<path d="M1206 3424 c-293 -65 -518 -287 -619 -609 -113 -360 -8 -734 321
-1145 224 -278 470 -504 817 -749 218 -154 300 -201 351 -201 61 0 78 8 256
127 164 110 227 165 194 171 -31 6 -71 -15 -240 -127 -135 -90 -174 -111 -203
-111 -65 0 -461 277 -713 497 -354 310 -622 667 -713 948 -39 121 -50 189 -49
315 1 401 263 752 615 824 190 39 393 3 553 -99 69 -44 181 -150 231 -218 38
-51 64 -70 86 -62 7 3 48 46 91 95 128 150 266 239 435 281 118 30 272 24 386
-15 161 -55 295 -158 390 -300 235 -354 208 -761 -80 -1191 -88 -132 -210
-275 -250 -294 -30 -15 -25 -15 -157 22 -33 10 -50 7 -121 -16 -109 -35 -156
-35 -198 0 -18 15 -40 46 -51 70 -38 86 -93 127 -139 103 -11 -7 -44 -48 -74
-93 -29 -45 -63 -91 -74 -101 -21 -19 -22 -19 -65 2 -24 12 -51 19 -60 16 -13
-5 -16 1 -16 29 0 20 -16 302 -35 628 -29 492 -38 596 -51 609 -14 13 -17 13
-30 -4 -8 -11 -14 -32 -14 -46 0 -15 -16 -281 -35 -591 -19 -310 -35 -574 -35
-585 0 -16 -6 -21 -24 -21 -14 0 -38 -10 -54 -22 -48 -34 -85 -28 -122 19 -43
55 -80 55 -159 -1 -52 -37 -65 -41 -142 -48 -47 -4 -93 -12 -104 -18 -16 -9
-13 -12 20 -23 82 -27 201 0 292 66 21 15 24 14 55 -19 57 -60 97 -71 149 -40
36 22 61 10 70 -34 3 -16 9 -35 13 -41 12 -19 36 -14 46 11 5 12 18 202 30
422 12 220 25 407 28 415 3 8 20 -228 38 -525 18 -297 33 -541 33 -542 1 -2 9
-3 20 -3 27 0 38 38 52 171 l12 117 37 -5 c67 -9 121 34 181 148 21 40 38 59
48 57 9 -2 35 -35 58 -73 70 -117 126 -150 217 -127 22 5 71 18 107 27 64 17
68 16 140 -4 82 -23 111 -20 174 19 68 42 272 322 355 487 98 197 134 335 133
518 -1 161 -29 281 -102 431 -92 187 -211 309 -386 394 -121 59 -212 80 -342
80 -241 0 -458 -104 -631 -303 -35 -39 -67 -72 -71 -72 -4 0 -32 29 -62 65
-115 136 -281 245 -434 286 -87 23 -293 28 -379 8z"/>
</g>
</svg>
